<svg width="524" height="524" viewBox="0 0 524 524" fill="none" xmlns="http://www.w3.org/2000/svg">
<rect width="524" height="524" rx="37" fill="#FFF07A"/>
<path d="M199.464 357H176.98V174.5L130.552 357H96.68L50.252 174.5V357H26.892V152.6H66.604L113.032 335.1L159.46 152.6H199.464V357ZM362.213 222.972H337.977C335.641 191.144 321.625 171.872 299.141 171.872C267.313 171.872 250.377 202.532 250.377 255.092C250.377 307.652 267.021 338.312 298.557 338.312C320.749 338.312 335.349 318.748 337.977 286.336H362.213C358.709 333.056 335.057 361.672 298.557 361.672C254.757 361.672 226.141 322.252 226.141 255.092C226.141 187.932 254.465 148.512 299.141 148.512C334.765 148.512 360.461 177.712 362.213 222.972ZM442.483 263.268H411.823V333.932H445.111C467.011 333.932 477.523 322.836 477.523 298.6C477.523 276.116 465.843 263.268 442.483 263.268ZM388.463 357.292V152.016H442.191C478.691 152.016 498.839 172.748 498.839 203.408C498.839 228.228 490.663 243.996 472.267 251.88H469.347C490.663 257.428 501.467 273.488 501.467 300.644C501.467 334.808 478.399 357.292 444.819 357.292H388.463ZM411.823 239.908H442.483C463.507 239.908 474.895 227.352 474.895 208.372C474.895 184.72 464.675 175.376 442.483 175.376H411.823V239.908Z" fill="black"/>
</svg>
